<svg width="1440" height="873" viewBox="0 0 1440 873" fill="none" xmlns="http://www.w3.org/2000/svg">
<ellipse cx="24.2177" cy="223.509" rx="17.0455" ry="18.75" transform="rotate(-27.5573 24.2177 223.509)" fill="black" fill-opacity="0.31"/>
<ellipse cx="-5.29929" cy="309.41" rx="17.0455" ry="18.75" transform="rotate(-27.5573 -5.29929 309.41)" fill="black" fill-opacity="0.31"/>
<ellipse cx="53.1323" cy="278.918" rx="17.0455" ry="18.75" transform="rotate(-27.5573 53.1323 278.918)" fill="black" fill-opacity="0.31"/>
<ellipse cx="517.03" cy="368.861" rx="13.6364" ry="15" transform="rotate(-22.2433 517.03 368.861)" fill="black" fill-opacity="0.31"/>
<ellipse cx="992.643" cy="707.8" rx="11.9318" ry="13.125" transform="rotate(-20.9118 992.643 707.8)" fill="black" fill-opacity="0.31"/>
<ellipse cx="1035.74" cy="691.332" rx="11.9318" ry="13.125" transform="rotate(-20.9118 1035.74 691.332)" fill="black" fill-opacity="0.31"/>
<ellipse cx="1008.26" cy="748.668" rx="11.9318" ry="13.125" transform="rotate(-20.9118 1008.26 748.668)" fill="black" fill-opacity="0.31"/>
<ellipse cx="1051.36" cy="732.2" rx="11.9318" ry="13.125" transform="rotate(-20.9118 1051.36 732.2)" fill="black" fill-opacity="0.31"/>
<ellipse cx="1405.82" cy="640.331" rx="13.2955" ry="14.0625" transform="rotate(40.7 1405.82 640.331)" fill="black" fill-opacity="0.31"/>
<ellipse cx="1414.22" cy="709.393" rx="13.2955" ry="14.0625" transform="rotate(40.7 1414.22 709.393)" fill="black" fill-opacity="0.31"/>
<ellipse cx="219.636" cy="376" rx="13.6364" ry="15" fill="black" fill-opacity="0.31"/>
<ellipse cx="272.364" cy="376" rx="13.6364" ry="15" fill="black" fill-opacity="0.31"/>
<ellipse cx="219.636" cy="426" rx="13.6364" ry="15" fill="black" fill-opacity="0.31"/>
<ellipse cx="1060.36" cy="48.1566" rx="13.6364" ry="15" transform="rotate(36.1593 1060.36 48.1566)" fill="black" fill-opacity="0.31"/>
<ellipse cx="1102.93" cy="79.2674" rx="13.6364" ry="15" transform="rotate(36.1593 1102.93 79.2674)" fill="black" fill-opacity="0.31"/>
<ellipse cx="1030.86" cy="88.5256" rx="13.6364" ry="15" transform="rotate(36.1593 1030.86 88.5256)" fill="black" fill-opacity="0.31"/>
<ellipse cx="1073.43" cy="119.636" rx="13.6364" ry="15" transform="rotate(36.1593 1073.43 119.636)" fill="black" fill-opacity="0.31"/>
<ellipse cx="599.577" cy="746.667" rx="11.9318" ry="13.125" transform="rotate(-40 599.577 746.667)" fill="black" fill-opacity="0.31"/>
<ellipse cx="634.919" cy="717.011" rx="11.9318" ry="13.125" transform="rotate(-40 634.919 717.011)" fill="black" fill-opacity="0.31"/>
<ellipse cx="663.041" cy="750.526" rx="11.9318" ry="13.125" transform="rotate(-40 663.041 750.526)" fill="black" fill-opacity="0.31"/>
<path d="M704 341L529 500" stroke="black"/>
<line x1="244.384" y1="272.32" x2="77.3838" y2="472.32" stroke="black"/>
<line x1="1041.44" y1="403.773" x2="976.59" y2="158.483" stroke="black"/>
<line x1="616.679" y1="198.361" x2="754.501" y2="1.06653" stroke="black"/>
<line x1="750.67" y1="710.656" x2="895.336" y2="841.629" stroke="black"/>
<line x1="183.825" y1="39.7126" x2="287.969" y2="175.679" stroke="black"/>
<path d="M1116.5 815L1175.17 763.264L1233.83 711.528" stroke="black"/>
</svg>
